<?xml version="1.0" standalone="no"?>
<!DOCTYPE svg PUBLIC "-//W3C//DTD SVG 20010904//EN"
 "http://www.w3.org/TR/2001/REC-SVG-20010904/DTD/svg10.dtd">
<svg version="1.0" xmlns="http://www.w3.org/2000/svg"
 width="16.000000pt" height="16.000000pt" viewBox="0 0 16.000000 16.000000"
 preserveAspectRatio="xMidYMid meet">
<metadata>
Created by potrace 1.11, written by Peter Selinger 2001-2013
</metadata>
<g transform="translate(0.000000,16.000000) scale(0.002286,-0.002286)"
fill="#000000" stroke="none">
<path d="M3390 6653 c-805 -28 -1560 -360 -2133 -937 -102 -103 -251 -276
-292 -339 l-18 -28 59 34 c427 250 1164 230 2034 -55 223 -73 519 -197 785
-328 361 -178 597 -316 894 -522 78 -55 144 -98 146 -96 2 2 -7 71 -20 153
-126 793 -392 1452 -732 1806 -231 240 -421 322 -723 312z"/>
<path d="M3830 6634 c0 -2 21 -15 48 -30 588 -339 1017 -1408 1092 -2728 18
-315 10 -744 -20 -1020 -5 -50 -8 -92 -5 -94 6 -6 165 120 275 217 264 234
484 462 641 666 148 192 299 449 369 631 109 284 120 543 30 741 -87 191 -302
482 -517 699 -416 419 -919 706 -1488 848 -128 32 -425 81 -425 70z"/>
<path d="M1565 5494 c-349 -50 -537 -127 -692 -281 -68 -69 -106 -128 -193
-301 -175 -351 -280 -716 -320 -1111 -13 -132 -13 -468 0 -602 20 -202 70
-450 128 -639 30 -97 119 -330 131 -342 3 -4 7 37 8 91 8 548 511 1278 1323
1922 395 314 776 552 1263 789 114 56 207 103 207 105 0 16 -468 178 -675 234
-368 99 -584 132 -905 136 -135 2 -258 1 -275 -1z"/>
<path d="M6376 4678 c-20 -319 -164 -653 -438 -1020 -111 -148 -203 -255 -372
-426 -473 -482 -1034 -881 -1714 -1219 -150 -75 -271 -137 -270 -139 10 -9
277 -109 393 -147 499 -164 920 -236 1305 -224 449 14 744 134 922 375 49 66
173 312 228 451 152 386 222 752 222 1171 0 419 -70 788 -222 1171 -22 57 -42
105 -44 106 -2 2 -6 -43 -10 -99z"/>
<path d="M1945 4159 c-137 -110 -226 -191 -385 -344 -334 -324 -550 -602 -705
-910 -117 -231 -163 -386 -172 -580 -10 -226 43 -368 240 -645 443 -621 1085
-1060 1822 -1244 128 -32 425 -81 425 -70 0 2 -21 15 -47 30 -242 139 -458
400 -638 769 -257 527 -412 1201 -456 1980 -17 300 -3 828 27 1053 3 23 2 42
-3 42 -4 -1 -53 -37 -108 -81z"/>
<path d="M2134 2598 c3 -13 10 -59 16 -103 53 -377 186 -861 325 -1180 191
-438 445 -755 713 -889 118 -60 204 -78 371 -77 896 3 1793 436 2375 1145 135
164 135 164 24 107 -334 -175 -834 -203 -1433 -80 -574 119 -1209 371 -1800
717 -149 87 -419 261 -516 333 -37 27 -69 49 -73 49 -3 0 -4 -10 -2 -22z"/>
</g>
</svg>
